<mxfile host="app.diagrams.net" modified="2024-05-08T19:46:58.646Z" agent="Mozilla/5.0 (Windows NT 10.0; Win64; x64; rv:125.0) Gecko/20100101 Firefox/125.0" etag="KTpITmG9wr3e0HEz5FJO" version="24.3.1" type="device">
  <diagram name="Page-1" id="AilRZGL1iljoM9QD4kVU">
    <mxGraphModel dx="1221" dy="733" grid="1" gridSize="10" guides="1" tooltips="1" connect="1" arrows="1" fold="1" page="1" pageScale="1" pageWidth="1169" pageHeight="827" math="0" shadow="0">
      <root>
        <mxCell id="0" />
        <mxCell id="1" parent="0" />
        <mxCell id="blIzS9svod8Idu_3zPE1-2" value="" style="sketch=0;pointerEvents=1;shadow=0;dashed=0;html=1;strokeColor=none;fillColor=#505050;labelPosition=center;verticalLabelPosition=bottom;verticalAlign=top;outlineConnect=0;align=center;shape=mxgraph.office.devices.headset;" vertex="1" parent="1">
          <mxGeometry x="40" y="41" width="70" height="80" as="geometry" />
        </mxCell>
        <mxCell id="blIzS9svod8Idu_3zPE1-7" style="edgeStyle=orthogonalEdgeStyle;rounded=0;orthogonalLoop=1;jettySize=auto;html=1;exitX=0;exitY=0.75;exitDx=0;exitDy=0;startArrow=classic;startFill=1;endArrow=none;endFill=0;" edge="1" parent="1" source="blIzS9svod8Idu_3zPE1-3" target="blIzS9svod8Idu_3zPE1-2">
          <mxGeometry relative="1" as="geometry">
            <Array as="points">
              <mxPoint x="180" y="101" />
              <mxPoint x="180" y="101" />
            </Array>
          </mxGeometry>
        </mxCell>
        <mxCell id="blIzS9svod8Idu_3zPE1-10" style="edgeStyle=orthogonalEdgeStyle;rounded=0;orthogonalLoop=1;jettySize=auto;html=1;exitX=0.25;exitY=1;exitDx=0;exitDy=0;startArrow=classic;startFill=1;endArrow=none;endFill=0;entryX=0.25;entryY=0;entryDx=0;entryDy=0;" edge="1" parent="1" source="blIzS9svod8Idu_3zPE1-3" target="blIzS9svod8Idu_3zPE1-14">
          <mxGeometry relative="1" as="geometry">
            <mxPoint x="415" y="210" as="targetPoint" />
          </mxGeometry>
        </mxCell>
        <mxCell id="blIzS9svod8Idu_3zPE1-11" value="I²C" style="edgeLabel;html=1;align=center;verticalAlign=middle;resizable=0;points=[];" vertex="1" connectable="0" parent="blIzS9svod8Idu_3zPE1-10">
          <mxGeometry x="-0.1491" y="3" relative="1" as="geometry">
            <mxPoint y="1" as="offset" />
          </mxGeometry>
        </mxCell>
        <mxCell id="blIzS9svod8Idu_3zPE1-3" value="Audio codec" style="rounded=0;whiteSpace=wrap;html=1;fillColor=#ffe6cc;strokeColor=#d79b00;" vertex="1" parent="1">
          <mxGeometry x="360" y="40" width="120" height="81" as="geometry" />
        </mxCell>
        <mxCell id="blIzS9svod8Idu_3zPE1-9" style="edgeStyle=orthogonalEdgeStyle;rounded=0;orthogonalLoop=1;jettySize=auto;html=1;exitX=1;exitY=0.1;exitDx=0;exitDy=0;exitPerimeter=0;entryX=1;entryY=0.75;entryDx=0;entryDy=0;" edge="1" parent="1" source="blIzS9svod8Idu_3zPE1-4" target="blIzS9svod8Idu_3zPE1-3">
          <mxGeometry relative="1" as="geometry" />
        </mxCell>
        <mxCell id="blIzS9svod8Idu_3zPE1-4" value="" style="pointerEvents=1;verticalLabelPosition=bottom;shadow=0;dashed=0;align=center;html=1;verticalAlign=top;shape=mxgraph.electrical.miscellaneous.3_conductor_jack;rotation=-180;fillColor=#fff2cc;strokeColor=#d6b656;" vertex="1" parent="1">
          <mxGeometry x="610" y="55" width="100" height="50" as="geometry" />
        </mxCell>
        <mxCell id="blIzS9svod8Idu_3zPE1-6" style="edgeStyle=orthogonalEdgeStyle;rounded=0;orthogonalLoop=1;jettySize=auto;html=1;exitX=0;exitY=0.25;exitDx=0;exitDy=0;" edge="1" parent="1" source="blIzS9svod8Idu_3zPE1-3" target="blIzS9svod8Idu_3zPE1-2">
          <mxGeometry relative="1" as="geometry">
            <Array as="points">
              <mxPoint x="180" y="60" />
              <mxPoint x="180" y="60" />
            </Array>
          </mxGeometry>
        </mxCell>
        <mxCell id="blIzS9svod8Idu_3zPE1-8" style="edgeStyle=orthogonalEdgeStyle;rounded=0;orthogonalLoop=1;jettySize=auto;html=1;exitX=1;exitY=0.25;exitDx=0;exitDy=0;entryX=1;entryY=0.9;entryDx=0;entryDy=0;entryPerimeter=0;" edge="1" parent="1" source="blIzS9svod8Idu_3zPE1-3" target="blIzS9svod8Idu_3zPE1-4">
          <mxGeometry relative="1" as="geometry" />
        </mxCell>
        <mxCell id="blIzS9svod8Idu_3zPE1-15" style="edgeStyle=orthogonalEdgeStyle;rounded=0;orthogonalLoop=1;jettySize=auto;html=1;exitX=0.75;exitY=0;exitDx=0;exitDy=0;entryX=0.75;entryY=1;entryDx=0;entryDy=0;startArrow=classic;startFill=1;" edge="1" parent="1" source="blIzS9svod8Idu_3zPE1-14" target="blIzS9svod8Idu_3zPE1-3">
          <mxGeometry relative="1" as="geometry">
            <Array as="points">
              <mxPoint x="450" y="190" />
              <mxPoint x="450" y="190" />
            </Array>
          </mxGeometry>
        </mxCell>
        <mxCell id="blIzS9svod8Idu_3zPE1-16" value="I²S" style="edgeLabel;html=1;align=center;verticalAlign=middle;resizable=0;points=[];" vertex="1" connectable="0" parent="blIzS9svod8Idu_3zPE1-15">
          <mxGeometry x="0.1011" relative="1" as="geometry">
            <mxPoint as="offset" />
          </mxGeometry>
        </mxCell>
        <mxCell id="blIzS9svod8Idu_3zPE1-28" style="edgeStyle=orthogonalEdgeStyle;rounded=0;orthogonalLoop=1;jettySize=auto;html=1;exitX=0.25;exitY=1;exitDx=0;exitDy=0;" edge="1" parent="1" source="blIzS9svod8Idu_3zPE1-14" target="blIzS9svod8Idu_3zPE1-27">
          <mxGeometry relative="1" as="geometry" />
        </mxCell>
        <mxCell id="blIzS9svod8Idu_3zPE1-32" style="edgeStyle=orthogonalEdgeStyle;rounded=0;orthogonalLoop=1;jettySize=auto;html=1;exitX=1;exitY=0.25;exitDx=0;exitDy=0;entryX=0;entryY=0.5;entryDx=0;entryDy=0;" edge="1" parent="1" source="blIzS9svod8Idu_3zPE1-14" target="blIzS9svod8Idu_3zPE1-31">
          <mxGeometry relative="1" as="geometry" />
        </mxCell>
        <mxCell id="blIzS9svod8Idu_3zPE1-14" value="ESP32" style="rounded=0;whiteSpace=wrap;html=1;fillColor=#ffe6cc;strokeColor=#d79b00;" vertex="1" parent="1">
          <mxGeometry x="360" y="210" width="120" height="60" as="geometry" />
        </mxCell>
        <mxCell id="blIzS9svod8Idu_3zPE1-18" style="edgeStyle=orthogonalEdgeStyle;rounded=0;orthogonalLoop=1;jettySize=auto;html=1;exitX=1;exitY=0.5;exitDx=0;exitDy=0;entryX=0;entryY=0.5;entryDx=0;entryDy=0;startArrow=classic;startFill=1;" edge="1" parent="1" source="blIzS9svod8Idu_3zPE1-17" target="blIzS9svod8Idu_3zPE1-14">
          <mxGeometry relative="1" as="geometry" />
        </mxCell>
        <mxCell id="blIzS9svod8Idu_3zPE1-19" value="UART" style="edgeLabel;html=1;align=center;verticalAlign=middle;resizable=0;points=[];" vertex="1" connectable="0" parent="blIzS9svod8Idu_3zPE1-18">
          <mxGeometry x="-0.0857" y="-2" relative="1" as="geometry">
            <mxPoint as="offset" />
          </mxGeometry>
        </mxCell>
        <mxCell id="blIzS9svod8Idu_3zPE1-17" value="&lt;div&gt;CP2102&lt;/div&gt;&lt;div&gt;USB-UART&lt;/div&gt;" style="rounded=0;whiteSpace=wrap;html=1;fillColor=#ffe6cc;strokeColor=#d79b00;" vertex="1" parent="1">
          <mxGeometry x="170" y="210" width="120" height="60" as="geometry" />
        </mxCell>
        <mxCell id="blIzS9svod8Idu_3zPE1-21" style="edgeStyle=orthogonalEdgeStyle;rounded=0;orthogonalLoop=1;jettySize=auto;html=1;entryX=0;entryY=0.5;entryDx=0;entryDy=0;startArrow=classic;startFill=1;" edge="1" parent="1" source="blIzS9svod8Idu_3zPE1-20" target="blIzS9svod8Idu_3zPE1-17">
          <mxGeometry relative="1" as="geometry" />
        </mxCell>
        <mxCell id="blIzS9svod8Idu_3zPE1-22" value="USB" style="edgeLabel;html=1;align=center;verticalAlign=middle;resizable=0;points=[];" vertex="1" connectable="0" parent="blIzS9svod8Idu_3zPE1-21">
          <mxGeometry x="-0.1736" relative="1" as="geometry">
            <mxPoint y="1" as="offset" />
          </mxGeometry>
        </mxCell>
        <mxCell id="blIzS9svod8Idu_3zPE1-41" style="edgeStyle=orthogonalEdgeStyle;rounded=0;orthogonalLoop=1;jettySize=auto;html=1;exitX=0.6;exitY=1;exitDx=0;exitDy=0;exitPerimeter=0;" edge="1" parent="1" source="blIzS9svod8Idu_3zPE1-20" target="blIzS9svod8Idu_3zPE1-40">
          <mxGeometry relative="1" as="geometry" />
        </mxCell>
        <mxCell id="blIzS9svod8Idu_3zPE1-20" value="" style="sketch=0;aspect=fixed;pointerEvents=1;shadow=0;dashed=0;html=1;strokeColor=none;labelPosition=center;verticalLabelPosition=bottom;verticalAlign=top;align=center;fillColor=#000000;shape=mxgraph.mscae.enterprise.usb" vertex="1" parent="1">
          <mxGeometry x="60" y="229" width="50" height="23" as="geometry" />
        </mxCell>
        <mxCell id="blIzS9svod8Idu_3zPE1-23" value="SPP" style="html=1;verticalLabelPosition=bottom;align=center;labelBackgroundColor=#ffffff;verticalAlign=top;strokeWidth=2;strokeColor=#0080F0;shadow=0;dashed=0;shape=mxgraph.ios7.icons.bluetooth;pointerEvents=1" vertex="1" parent="1">
          <mxGeometry x="560" y="223.2" width="15" height="28.799999999999997" as="geometry" />
        </mxCell>
        <mxCell id="blIzS9svod8Idu_3zPE1-24" style="edgeStyle=orthogonalEdgeStyle;rounded=0;orthogonalLoop=1;jettySize=auto;html=1;exitX=1;exitY=0.5;exitDx=0;exitDy=0;entryX=-0.133;entryY=0.583;entryDx=0;entryDy=0;entryPerimeter=0;" edge="1" parent="1" source="blIzS9svod8Idu_3zPE1-14" target="blIzS9svod8Idu_3zPE1-23">
          <mxGeometry relative="1" as="geometry" />
        </mxCell>
        <mxCell id="blIzS9svod8Idu_3zPE1-25" value="" style="shape=image;html=1;verticalAlign=top;verticalLabelPosition=bottom;labelBackgroundColor=#ffffff;imageAspect=0;aspect=fixed;image=https://cdn2.iconfinder.com/data/icons/web-development-and-studio/512/110_walkie_talkie_communication_radio_camping_camping_camp-128.png" vertex="1" parent="1">
          <mxGeometry x="770" y="10" width="128" height="128" as="geometry" />
        </mxCell>
        <mxCell id="blIzS9svod8Idu_3zPE1-26" style="edgeStyle=orthogonalEdgeStyle;rounded=0;orthogonalLoop=1;jettySize=auto;html=1;exitX=0;exitY=0.5;exitDx=0;exitDy=0;entryX=-0.04;entryY=0.62;entryDx=0;entryDy=0;entryPerimeter=0;startArrow=classic;startFill=1;" edge="1" parent="1" source="blIzS9svod8Idu_3zPE1-25" target="blIzS9svod8Idu_3zPE1-4">
          <mxGeometry relative="1" as="geometry" />
        </mxCell>
        <mxCell id="blIzS9svod8Idu_3zPE1-49" value="&lt;div&gt;SATA&lt;/div&gt;&lt;div&gt;cable&lt;br&gt;&lt;/div&gt;" style="edgeLabel;html=1;align=center;verticalAlign=middle;resizable=0;points=[];" vertex="1" connectable="0" parent="blIzS9svod8Idu_3zPE1-26">
          <mxGeometry x="0.0357" y="-4" relative="1" as="geometry">
            <mxPoint as="offset" />
          </mxGeometry>
        </mxCell>
        <mxCell id="blIzS9svod8Idu_3zPE1-27" value="SD-card" style="pointerEvents=1;shadow=0;dashed=0;html=1;strokeColor=none;fillColor=#4495D1;labelPosition=center;verticalLabelPosition=bottom;verticalAlign=top;align=center;outlineConnect=0;shape=mxgraph.veeam.sd_card;" vertex="1" parent="1">
          <mxGeometry x="370" y="340" width="32.4" height="38.8" as="geometry" />
        </mxCell>
        <mxCell id="blIzS9svod8Idu_3zPE1-29" value="Power" style="verticalLabelPosition=bottom;shadow=0;dashed=0;align=center;html=1;verticalAlign=top;shape=mxgraph.electrical.opto_electronics.led_2;pointerEvents=1;fillColor=#008a00;strokeColor=#005700;fontColor=#ffffff;" vertex="1" parent="1">
          <mxGeometry x="600" y="280" width="100" height="50" as="geometry" />
        </mxCell>
        <mxCell id="blIzS9svod8Idu_3zPE1-30" value="Audio RX/TX" style="verticalLabelPosition=bottom;shadow=0;dashed=0;align=center;html=1;verticalAlign=top;shape=mxgraph.electrical.opto_electronics.led_2;pointerEvents=1;fillColor=#008a00;fontColor=#ffffff;strokeColor=#005700;" vertex="1" parent="1">
          <mxGeometry x="600" y="370" width="100" height="50" as="geometry" />
        </mxCell>
        <mxCell id="blIzS9svod8Idu_3zPE1-35" style="edgeStyle=orthogonalEdgeStyle;rounded=0;orthogonalLoop=1;jettySize=auto;html=1;exitX=0.5;exitY=0;exitDx=0;exitDy=0;entryX=0.52;entryY=0.04;entryDx=0;entryDy=0;entryPerimeter=0;" edge="1" parent="1" source="blIzS9svod8Idu_3zPE1-31" target="blIzS9svod8Idu_3zPE1-4">
          <mxGeometry relative="1" as="geometry" />
        </mxCell>
        <mxCell id="blIzS9svod8Idu_3zPE1-31" value="PTT" style="rounded=0;whiteSpace=wrap;html=1;fillColor=#ffe6cc;strokeColor=#d79b00;" vertex="1" parent="1">
          <mxGeometry x="600" y="163.2" width="120" height="60" as="geometry" />
        </mxCell>
        <mxCell id="blIzS9svod8Idu_3zPE1-33" style="edgeStyle=orthogonalEdgeStyle;rounded=0;orthogonalLoop=1;jettySize=auto;html=1;exitX=1;exitY=0.75;exitDx=0;exitDy=0;entryX=0;entryY=0.57;entryDx=0;entryDy=0;entryPerimeter=0;" edge="1" parent="1" source="blIzS9svod8Idu_3zPE1-14" target="blIzS9svod8Idu_3zPE1-29">
          <mxGeometry relative="1" as="geometry" />
        </mxCell>
        <mxCell id="blIzS9svod8Idu_3zPE1-34" style="edgeStyle=orthogonalEdgeStyle;rounded=0;orthogonalLoop=1;jettySize=auto;html=1;exitX=0.75;exitY=1;exitDx=0;exitDy=0;entryX=0;entryY=0.57;entryDx=0;entryDy=0;entryPerimeter=0;" edge="1" parent="1" source="blIzS9svod8Idu_3zPE1-14" target="blIzS9svod8Idu_3zPE1-30">
          <mxGeometry relative="1" as="geometry" />
        </mxCell>
        <mxCell id="blIzS9svod8Idu_3zPE1-37" value="" style="verticalLabelPosition=bottom;shadow=0;dashed=0;align=center;fillColor=strokeColor;html=1;verticalAlign=top;strokeWidth=1;shape=mxgraph.electrical.miscellaneous.monocell_battery;rotation=-180;" vertex="1" parent="1">
          <mxGeometry x="190" y="510" width="80" height="40" as="geometry" />
        </mxCell>
        <mxCell id="blIzS9svod8Idu_3zPE1-39" style="edgeStyle=orthogonalEdgeStyle;rounded=0;orthogonalLoop=1;jettySize=auto;html=1;exitX=0.5;exitY=1;exitDx=0;exitDy=0;" edge="1" parent="1" source="blIzS9svod8Idu_3zPE1-38" target="blIzS9svod8Idu_3zPE1-37">
          <mxGeometry relative="1" as="geometry" />
        </mxCell>
        <mxCell id="blIzS9svod8Idu_3zPE1-44" style="edgeStyle=orthogonalEdgeStyle;rounded=0;orthogonalLoop=1;jettySize=auto;html=1;exitX=1;exitY=0.5;exitDx=0;exitDy=0;entryX=0;entryY=0.5;entryDx=0;entryDy=0;" edge="1" parent="1" source="blIzS9svod8Idu_3zPE1-38" target="blIzS9svod8Idu_3zPE1-43">
          <mxGeometry relative="1" as="geometry" />
        </mxCell>
        <mxCell id="blIzS9svod8Idu_3zPE1-38" value="BMS" style="rounded=0;whiteSpace=wrap;html=1;fillColor=#ffe6cc;strokeColor=#d79b00;" vertex="1" parent="1">
          <mxGeometry x="170" y="420" width="120" height="60" as="geometry" />
        </mxCell>
        <mxCell id="blIzS9svod8Idu_3zPE1-42" style="edgeStyle=orthogonalEdgeStyle;rounded=0;orthogonalLoop=1;jettySize=auto;html=1;exitX=1;exitY=0.5;exitDx=0;exitDy=0;entryX=0;entryY=0.5;entryDx=0;entryDy=0;" edge="1" parent="1" source="blIzS9svod8Idu_3zPE1-40" target="blIzS9svod8Idu_3zPE1-38">
          <mxGeometry relative="1" as="geometry" />
        </mxCell>
        <mxCell id="blIzS9svod8Idu_3zPE1-40" value="Charger" style="rounded=0;whiteSpace=wrap;html=1;fillColor=#ffe6cc;strokeColor=#d79b00;" vertex="1" parent="1">
          <mxGeometry x="50" y="420" width="80" height="60" as="geometry" />
        </mxCell>
        <mxCell id="blIzS9svod8Idu_3zPE1-43" value="&lt;div&gt;DCDC&lt;/div&gt;&lt;div&gt;3V3&lt;br&gt;&lt;/div&gt;" style="rounded=0;whiteSpace=wrap;html=1;fillColor=#ffe6cc;strokeColor=#d79b00;" vertex="1" parent="1">
          <mxGeometry x="360" y="420" width="120" height="60" as="geometry" />
        </mxCell>
        <mxCell id="blIzS9svod8Idu_3zPE1-48" style="edgeStyle=orthogonalEdgeStyle;rounded=0;orthogonalLoop=1;jettySize=auto;html=1;exitX=1;exitY=0.8;exitDx=0;exitDy=0;" edge="1" parent="1" source="blIzS9svod8Idu_3zPE1-47" target="blIzS9svod8Idu_3zPE1-43">
          <mxGeometry relative="1" as="geometry" />
        </mxCell>
        <mxCell id="blIzS9svod8Idu_3zPE1-47" value="&lt;div&gt;&lt;br&gt;&lt;/div&gt;&lt;div&gt;&lt;br&gt;&lt;/div&gt;&lt;div&gt;ON/OFF&lt;br&gt;&lt;/div&gt;" style="html=1;shape=mxgraph.electrical.electro-mechanical.pushbutton;aspect=fixed;elSwitchState=off;" vertex="1" parent="1">
          <mxGeometry x="65" y="570" width="75" height="20" as="geometry" />
        </mxCell>
      </root>
    </mxGraphModel>
  </diagram>
</mxfile>
